<?xml version="1.0" standalone="no"?>
<!DOCTYPE svg PUBLIC "-//W3C//DTD SVG 20010904//EN"
 "http://www.w3.org/TR/2001/REC-SVG-20010904/DTD/svg10.dtd">
<svg version="1.0" xmlns="http://www.w3.org/2000/svg"
 width="500.000000pt" height="500.000000pt" viewBox="0 0 500.000000 500.000000"
 preserveAspectRatio="xMidYMid meet">

<g transform="translate(0.000000,500.000000) scale(0.100000,-0.100000)"
fill="#000000" stroke="none">
<path d="M2213 3617 c-185 -334 -343 -732 -343 -862 0 -47 18 -92 45 -109 61
-40 101 -7 170 139 52 111 108 185 164 214 l21 12 0 -396 0 -395 60 0 60 0 2
418 c2 232 7 408 11 397 39 -93 57 -125 93 -160 30 -29 51 -66 80 -137 l39
-98 63 0 c34 0 62 3 62 8 0 4 -14 40 -31 81 -17 40 -28 76 -24 79 13 13 80
-35 101 -72 12 -22 32 -91 44 -154 36 -196 68 -262 148 -309 48 -29 137 -53
192 -52 l35 0 -51 24 c-65 32 -101 82 -171 238 -97 219 -130 266 -207 308 -48
25 -58 39 -28 39 33 0 117 47 149 83 41 47 56 96 51 173 -3 52 -9 70 -35 101
-58 73 -165 110 -340 120 l-112 6 -88 208 c-48 115 -90 209 -93 209 -3 0 -33
-51 -67 -113z m113 -289 c4 -15 -1 -18 -25 -18 l-31 0 0 -142 0 -143 -46 -30
c-57 -38 -105 -102 -150 -202 -55 -121 -57 -125 -88 -138 -35 -15 -59 -10 -83
17 -14 16 -18 36 -17 92 2 121 89 356 255 688 l71 141 54 -124 c30 -68 57
-132 60 -141z m357 -54 c107 -38 152 -111 145 -234 -7 -112 -58 -191 -135
-206 -28 -5 -29 -4 -123 221 -52 124 -97 231 -99 237 -5 15 159 1 212 -18z
m-256 -203 c-14 -5 -27 20 -27 54 1 30 1 30 19 -10 10 -22 14 -42 8 -44z m52
-100 c38 -89 39 -102 6 -63 -38 46 -77 135 -62 144 16 10 20 4 56 -81z"/>
<path d="M1797 1893 c-4 -3 -7 -62 -7 -130 0 -103 2 -123 15 -123 13 0 15 21
15 130 0 119 -4 142 -23 123z"/>
<path d="M2050 1884 c0 -14 3 -15 18 -3 9 7 19 15 21 16 2 2 -5 3 -17 3 -14 0
-22 -6 -22 -16z"/>
<path d="M2108 1815 c2 -47 -1 -106 -6 -130 -10 -46 -5 -54 16 -33 17 17 17
248 0 248 -10 0 -12 -22 -10 -85z"/>
<path d="M2177 1893 c-4 -3 -7 -42 -7 -85 0 -93 18 -144 55 -158 37 -14 55
-12 25 3 -39 20 -50 53 -50 155 0 84 -5 103 -23 85z"/>
<path d="M2340 1898 c1 -2 7 -25 15 -53 l14 -50 0 53 c1 40 -2 52 -14 52 -8 0
-15 -1 -15 -2z"/>
<path d="M2406 1892 c-2 -4 -5 -63 -5 -130 -1 -102 1 -122 14 -122 13 0 15 21
15 130 0 116 -7 150 -24 122z"/>
<path d="M2567 1893 c-4 -3 -7 -62 -7 -130 0 -103 2 -123 15 -123 13 0 15 21
15 130 0 119 -4 142 -23 123z"/>
<path d="M2747 1893 c-4 -3 -7 -62 -7 -130 0 -103 2 -123 15 -123 13 0 15 21
15 130 0 119 -4 142 -23 123z"/>
<path d="M3250 1890 c0 -5 4 -10 9 -10 6 0 13 5 16 10 3 6 -1 10 -9 10 -9 0
-16 -4 -16 -10z"/>
<path d="M3298 1770 c-2 -72 0 -130 4 -130 19 0 28 48 28 149 0 90 -3 111 -14
111 -12 0 -15 -25 -18 -130z"/>
<path d="M1635 1880 c-10 -16 85 -240 101 -240 8 0 14 2 14 5 0 9 -93 229
-101 238 -4 5 -10 4 -14 -3z"/>
<path d="M1903 1879 c11 -6 17 -22 17 -44 0 -22 -6 -38 -17 -44 -10 -6 -13
-11 -8 -11 47 -1 75 79 36 100 -26 13 -52 13 -28 -1z"/>
<path d="M2853 1879 c20 -12 23 -68 5 -89 -9 -10 -6 -9 12 2 47 29 33 99 -19
98 -13 -1 -13 -2 2 -11z"/>
<path d="M3085 1880 c-11 -18 87 -239 107 -240 13 0 7 22 -34 118 -54 127 -62
140 -73 122z"/>
<path d="M1922 1728 c12 -47 43 -88 66 -88 13 0 13 2 0 18 -9 9 -23 33 -30 52
-8 19 -22 41 -30 48 -14 12 -15 8 -6 -30z"/>
<path d="M2872 1730 c10 -42 46 -90 69 -90 6 0 1 12 -10 26 -12 15 -21 32 -21
38 0 6 -11 25 -24 41 l-25 30 11 -45z"/>
</g>
</svg>
